<?xml version="1.0" standalone="no"?><!DOCTYPE svg PUBLIC "-//W3C//DTD SVG 1.1//EN" "http://www.w3.org/Graphics/SVG/1.1/DTD/svg11.dtd"><svg t="1574608260941" class="icon" viewBox="0 0 1024 1024" version="1.1" xmlns="http://www.w3.org/2000/svg" p-id="582" xmlns:xlink="http://www.w3.org/1999/xlink" width="200" height="200"><defs><style type="text/css"></style></defs><path d="M755.712 204.8H268.288c-34.816 0-63.488 28.672-63.488 63.488v487.424c0 34.816 28.672 63.488 63.488 63.488h487.424c34.816 0 63.488-28.672 63.488-63.488V268.288c0-34.816-28.672-63.488-63.488-63.488z m-465.92 63.488h444.416c11.264 0 21.504 9.216 21.504 21.504v39.936H268.288v-39.936c0-12.288 9.216-21.504 21.504-21.504z m444.416 487.424H289.792c-11.264 0-21.504-9.216-21.504-21.504V391.168h487.424v343.04c0 12.288-9.216 21.504-21.504 21.504z m-256-107.52l-67.584-67.584 67.584-67.584c4.096-4.096 4.096-10.24 0-14.336l-28.672-28.672c-4.096-4.096-10.24-4.096-14.336 0l-74.752 74.752-15.36 15.36-13.312 13.312c-2.048 2.048-3.072 5.12-3.072 7.168 0 3.072 1.024 5.12 3.072 7.168l104.448 104.448c4.096 4.096 10.24 4.096 14.336 0l28.672-28.672c3.072-5.12 3.072-11.264-1.024-15.36z m215.04-75.776l-13.312-13.312-15.36-15.36-74.752-74.752c-4.096-4.096-10.24-4.096-14.336 0l-28.672 28.672c-4.096 4.096-4.096 10.24 0 14.336l67.584 67.584-67.584 67.584c-4.096 4.096-4.096 10.24 0 14.336l28.672 28.672c4.096 4.096 10.24 4.096 14.336 0l104.448-104.448c2.048-2.048 3.072-5.12 3.072-7.168-1.024-1.024-2.048-4.096-4.096-6.144z" p-id="583" fill="#1296db"></path></svg>